<svg width="277" height="90" viewBox="0 0 277 90" fill="none" xmlns="http://www.w3.org/2000/svg">
<path d="M119.895 89.8474L119.881 83.4119L116.7 88.7379H115.897L112.715 83.4951V89.8474H111V80.1387H112.48L116.326 86.5742L120.103 80.1387H121.583L121.597 89.8474H119.895ZM131.877 87.6006H127.035L126.08 89.8474H124.226L128.584 80.1387H130.355L134.726 89.8474H132.846L131.877 87.6006ZM131.282 86.1859L129.456 81.9417L127.643 86.1859H131.282ZM143.678 89.8474L141.699 87.0042C141.616 87.0134 141.491 87.018 141.326 87.018H139.139V89.8474H137.341V80.1387H141.326C142.165 80.1387 142.894 80.2774 143.512 80.5548C144.139 80.8322 144.618 81.2298 144.95 81.7476C145.282 82.2653 145.448 82.8803 145.448 83.5922C145.448 84.3227 145.268 84.9515 144.909 85.4785C144.557 86.0055 144.051 86.3985 143.387 86.6574L145.615 89.8474H143.678ZM143.636 83.5922C143.636 82.9727 143.433 82.4965 143.027 82.1637C142.621 81.8308 142.027 81.6644 141.242 81.6644H139.139V85.534H141.242C142.027 85.534 142.621 85.3675 143.027 85.0347C143.433 84.6925 143.636 84.2118 143.636 83.5922ZM150.672 81.6644H147.464V80.1387H155.68V81.6644H152.471V89.8474H150.672V81.6644ZM170.884 90L169.666 88.8211C168.762 89.5978 167.678 89.9861 166.415 89.9861C165.741 89.9861 165.137 89.8752 164.603 89.6533C164.067 89.4313 163.648 89.1262 163.344 88.7379C163.039 88.3402 162.887 87.8918 162.887 87.3925C162.887 86.7915 163.062 86.2645 163.414 85.8114C163.764 85.3491 164.335 84.896 165.128 84.4521C164.741 84.0638 164.464 83.7032 164.298 83.3703C164.132 83.0282 164.049 82.6768 164.049 82.3162C164.049 81.632 164.303 81.0818 164.81 80.6657C165.326 80.2404 166.009 80.0277 166.858 80.0277C167.641 80.0277 168.268 80.2219 168.739 80.6103C169.21 80.9893 169.445 81.5072 169.445 82.1637C169.445 82.663 169.287 83.1068 168.974 83.4951C168.67 83.8835 168.168 84.2764 167.466 84.6741L169.555 86.6713C169.786 86.2182 169.966 85.6727 170.094 85.0347L171.492 85.4924C171.308 86.3523 171.017 87.092 170.62 87.7115L171.838 88.8766L170.884 90ZM166.858 81.2621C166.48 81.2621 166.18 81.3592 165.958 81.5534C165.737 81.7383 165.627 81.9834 165.627 82.2885C165.627 82.5104 165.687 82.723 165.806 82.9265C165.927 83.1207 166.156 83.3888 166.498 83.7309C167.051 83.4258 167.434 83.1623 167.646 82.9404C167.867 82.7092 167.979 82.4595 167.979 82.1914C167.979 81.9047 167.877 81.6782 167.674 81.5118C167.48 81.3454 167.208 81.2621 166.858 81.2621ZM166.54 88.5714C167.342 88.5714 168.042 88.3264 168.643 87.8363L166.083 85.3814C165.529 85.6865 165.137 85.9824 164.907 86.2691C164.685 86.5465 164.575 86.8609 164.575 87.2122C164.575 87.619 164.755 87.9473 165.114 88.1969C165.475 88.4466 165.949 88.5714 166.54 88.5714ZM186.591 84.8821H188.292V88.7517C187.794 89.1494 187.213 89.4545 186.549 89.6671C185.886 89.8798 185.203 89.9861 184.502 89.9861C183.515 89.9861 182.625 89.7735 181.832 89.3481C181.039 88.9136 180.417 88.3172 179.965 87.5589C179.512 86.8007 179.286 85.9455 179.286 84.9931C179.286 84.0406 179.512 83.1854 179.965 82.4272C180.417 81.6689 181.039 81.0772 181.832 80.6519C182.634 80.2173 183.534 80 184.53 80C185.341 80 186.078 80.1341 186.744 80.4022C187.407 80.6703 187.964 81.0634 188.416 81.5811L187.283 82.6907C186.544 81.951 185.655 81.5811 184.613 81.5811C183.93 81.5811 183.322 81.7244 182.786 82.0111C182.261 82.2978 181.846 82.7 181.541 83.2178C181.247 83.7355 181.098 84.3273 181.098 84.9931C181.098 85.6404 181.247 86.2229 181.541 86.7406C181.846 87.2584 182.261 87.6653 182.786 87.9612C183.322 88.257 183.926 88.405 184.599 88.405C185.355 88.405 186.019 88.2386 186.591 87.9057V84.8821ZM198.383 89.8474L196.406 87.0042C196.322 87.0134 196.198 87.018 196.031 87.018H193.846V89.8474H192.047V80.1387H196.031C196.872 80.1387 197.6 80.2774 198.218 80.5548C198.845 80.8322 199.325 81.2298 199.656 81.7476C199.989 82.2653 200.155 82.8803 200.155 83.5922C200.155 84.3227 199.975 84.9515 199.615 85.4785C199.264 86.0055 198.758 86.3985 198.094 86.6574L200.32 89.8474H198.383ZM198.342 83.5922C198.342 82.9727 198.139 82.4965 197.733 82.1637C197.327 81.8308 196.733 81.6644 195.949 81.6644H193.846V85.534H195.949C196.733 85.534 197.327 85.3675 197.733 85.0347C198.139 84.6925 198.342 84.2118 198.342 83.5922ZM208.073 89.9861C207.087 89.9861 206.197 89.7735 205.404 89.3481C204.611 88.9136 203.988 88.3172 203.536 87.5589C203.084 86.7915 202.858 85.9362 202.858 84.9931C202.858 84.0499 203.084 83.1993 203.536 82.4411C203.988 81.6736 204.611 81.0772 205.404 80.6519C206.197 80.2173 207.087 80 208.073 80C209.061 80 209.95 80.2173 210.744 80.6519C211.537 81.0772 212.159 81.6689 212.612 82.4272C213.064 83.1854 213.29 84.0406 213.29 84.9931C213.29 85.9455 213.064 86.8007 212.612 87.5589C212.159 88.3172 211.537 88.9136 210.744 89.3481C209.95 89.7735 209.061 89.9861 208.073 89.9861ZM208.073 88.405C208.719 88.405 209.301 88.2617 209.817 87.975C210.334 87.6792 210.739 87.2723 211.034 86.7545C211.329 86.2275 211.477 85.6404 211.477 84.9931C211.477 84.3458 211.329 83.7632 211.034 83.2455C210.739 82.7184 210.334 82.3116 209.817 82.025C209.301 81.7291 208.719 81.5811 208.073 81.5811C207.428 81.5811 206.847 81.7291 206.331 82.025C205.814 82.3116 205.408 82.7184 205.114 83.2455C204.818 83.7632 204.671 84.3458 204.671 84.9931C204.671 85.6404 204.818 86.2275 205.114 86.7545C205.408 87.2723 205.814 87.6792 206.331 87.975C206.847 88.2617 207.428 88.405 208.073 88.405ZM221.061 89.9861C220.083 89.9861 219.198 89.7735 218.404 89.3481C217.621 88.9136 217.003 88.3172 216.551 87.5589C216.108 86.8007 215.888 85.9455 215.888 84.9931C215.888 84.0406 216.113 83.1854 216.565 82.4272C217.017 81.6689 217.635 81.0772 218.418 80.6519C219.212 80.2173 220.097 80 221.075 80C221.868 80 222.591 80.1387 223.246 80.4161C223.901 80.6935 224.454 81.0957 224.906 81.6227L223.745 82.7184C223.044 81.9602 222.181 81.5811 221.158 81.5811C220.493 81.5811 219.899 81.7291 219.373 82.025C218.847 82.3116 218.437 82.7139 218.142 83.2316C217.847 83.7494 217.7 84.3366 217.7 84.9931C217.7 85.6495 217.847 86.2368 218.142 86.7545C218.437 87.2723 218.847 87.6792 219.373 87.975C219.899 88.2617 220.493 88.405 221.158 88.405C222.181 88.405 223.044 88.0212 223.745 87.2538L224.906 88.3634C224.454 88.8904 223.897 89.2927 223.234 89.57C222.579 89.8474 221.854 89.9861 221.061 89.9861ZM235.277 88.3356V89.8474H228.013V80.1387H235.083V81.6505H229.812V84.1748H234.487V85.6588H229.812V88.3356H235.277ZM245 89.8474L243.022 87.0042C242.939 87.0134 242.814 87.018 242.648 87.018H240.463V89.8474H238.664V80.1387H242.648C243.488 80.1387 244.217 80.2774 244.835 80.5548C245.462 80.8322 245.942 81.2298 246.273 81.7476C246.605 82.2653 246.772 82.8803 246.772 83.5922C246.772 84.3227 246.591 84.9515 246.232 85.4785C245.881 86.0055 245.374 86.3985 244.71 86.6574L246.937 89.8474H245ZM244.959 83.5922C244.959 82.9727 244.756 82.4965 244.35 82.1637C243.944 81.8308 243.35 81.6644 242.566 81.6644H240.463V85.534H242.566C243.35 85.534 243.944 85.3675 244.35 85.0347C244.756 84.6925 244.959 84.2118 244.959 83.5922ZM254.209 86.4216V89.8474H252.411V86.4494L248.607 80.1387H250.53L253.365 84.8682L256.23 80.1387H258L254.209 86.4216Z" fill="#253D4E"/>
<mask id="mask0_52_4" style="mask-type:luminance" maskUnits="userSpaceOnUse" x="0" y="19" width="86" height="67">
<path d="M86 19H0V85.1538H86V19Z" fill="white"/>
</mask>
<g mask="url(#mask0_52_4)">
<path opacity="0.8" d="M64.4411 63.0369C72.6293 63.885 80.2525 55.0583 81.4681 43.3218C82.6837 31.5854 77.0313 21.3836 68.8431 20.5356C60.6549 19.6875 53.0317 28.5143 51.8161 40.2507C50.6005 51.9871 56.2529 62.1889 64.4411 63.0369Z" fill="#FDC040"/>
<path d="M52.1681 68.6632C59.9586 66.0034 63.1834 54.7951 59.371 43.6288C55.5586 32.4624 46.1526 25.5665 38.3622 28.2264C30.5717 30.8862 27.3469 42.0945 31.1593 53.2608C34.9717 64.4271 44.3777 71.323 52.1681 68.6632Z" fill="#FDC040"/>
<path d="M29.7693 55.3846H82.7705C83.1936 55.5684 84.1665 56.2667 84.674 57.5898C85.3085 59.2436 87.1026 83.5 56.7821 78.5385C32.9253 78.5385 27.3585 77.8034 27.5699 77.4359C31.9745 76.3333 32.5257 71.9231 33.077 68.6154C33.6283 65.3077 29.7693 55.3846 29.7693 55.3846Z" fill="#81B13D"/>
<path d="M69.5904 32.7075C68.8944 32.7075 68.3306 33.2716 68.3306 33.9673V34.1685C68.3306 34.8645 68.8944 35.4283 69.5904 35.4283C70.2863 35.4283 70.8501 34.8645 70.8501 34.1685V33.9673C70.8501 33.2714 70.2863 32.7075 69.5904 32.7075Z" fill="#253D4E"/>
<path d="M72.8626 38.3278C72.1667 38.3278 71.6028 38.8916 71.6028 39.5874V39.7887C71.6028 40.4845 72.1667 41.0484 72.8626 41.0484C73.5585 41.0484 74.1224 40.4846 74.1224 39.7887V39.5874C74.1224 38.8916 73.5585 38.3278 72.8626 38.3278Z" fill="#253D4E"/>
<path d="M45.2788 37.1448L45.1856 36.9663C44.8636 36.3493 44.1022 36.1103 43.486 36.4324C42.8691 36.7545 42.6302 37.5154 42.9521 38.1322L43.0454 38.3107C43.2699 38.7413 43.7088 38.988 44.163 38.988C44.3595 38.988 44.5588 38.9419 44.745 38.8445C45.3617 38.5225 45.6008 37.7616 45.2788 37.1448Z" fill="#253D4E"/>
<path d="M50.7805 40.6121L50.6873 40.4336C50.3653 39.8166 49.6041 39.5776 48.9877 39.8997C48.3708 40.2218 48.1319 40.9827 48.4538 41.5994L48.5471 41.7781C48.7716 42.2087 49.2104 42.4552 49.6647 42.4552C49.8612 42.4552 50.0605 42.4093 50.2467 42.3118C50.8635 41.9899 51.1025 41.2289 50.7805 40.6121Z" fill="#253D4E"/>
<path d="M42.9421 65.6759L39.195 61.9286C38.7029 61.4366 37.9052 61.4365 37.4136 61.9285C36.9214 62.4205 36.9214 63.2182 37.4134 63.7099L41.1604 67.4572C41.4065 67.7033 41.7287 67.8262 42.0512 67.8262C42.3735 67.8262 42.696 67.7033 42.942 67.4574C43.434 66.9653 43.434 66.1677 42.9421 65.6759Z" fill="#253D4E"/>
<path d="M54.0755 63.3282C53.6721 62.7615 52.8858 62.6287 52.3186 63.0325L39.2414 72.3428C38.6747 72.7462 38.5422 73.5329 38.9458 74.0996C39.1914 74.4449 39.5791 74.6288 39.973 74.6288C40.2256 74.6288 40.481 74.553 40.7025 74.3952L53.7798 65.0849C54.3465 64.6815 54.4789 63.8949 54.0755 63.3282Z" fill="#253D4E"/>
<path d="M58.6988 65.2284C58.2957 64.6617 57.5092 64.529 56.942 64.9328L51.9223 68.5065C51.3554 68.9103 51.2232 69.6968 51.6267 70.2635C51.8724 70.6088 52.2601 70.7928 52.6539 70.7928C52.9066 70.7928 53.1618 70.7168 53.3835 70.559L58.4032 66.9852C58.9701 66.5818 59.1023 65.7952 58.6988 65.2284Z" fill="#253D4E"/>
<path d="M85.762 59.5124C85.3548 58.948 84.5677 58.8207 84.0032 59.2273L83.5836 59.5298C83.5853 59.4218 83.5877 59.3139 83.5877 59.2057C83.5877 58.0039 83.1201 56.8731 82.2685 56.0192C81.4171 55.1699 80.2862 54.7023 79.0845 54.7023H78.7117C80.0942 52.031 80.7962 48.8144 80.7962 45.101C80.7962 37.8187 78.0663 29.8587 73.8418 24.8221C73.3944 24.2889 72.5999 24.2192 72.067 24.6666C71.534 25.1138 71.4643 25.9084 71.9114 26.4414C75.7782 31.0511 78.2768 38.3756 78.2768 45.101C78.2768 48.977 77.4436 52.203 75.8005 54.7023H73.3062L74.4144 53.9133C74.9814 53.5098 75.1136 52.7232 74.7101 52.1564C74.3068 51.5897 73.5206 51.4571 72.9533 51.8608L68.9624 54.7023H61.4689C62.224 50.877 61.4375 46.6036 59.1553 42.2321C57.5216 39.1037 55.2015 36.0768 52.5326 33.5122C55.2815 26.5591 59.8308 22.1111 64.2636 22.1111C65.6023 22.1111 66.9514 22.5006 68.2731 23.2692C68.8747 23.6186 69.6458 23.4145 69.9956 22.8132C70.3451 22.2117 70.141 21.4406 69.5396 21.0909C67.828 20.096 66.0529 19.5916 64.2636 19.5916C58.9008 19.5916 53.7441 24.1996 50.5378 31.7364C49.4457 30.8378 48.3139 30.0207 47.1609 29.3088C41.734 25.9571 36.5951 25.2338 32.6914 27.2718C29.0906 29.1536 26.7843 33.3261 26.1967 39.0207C26.1252 39.7128 26.6284 40.3318 27.3203 40.403C28.0141 40.4756 28.6315 39.9711 28.7026 39.2793C29.2006 34.4534 31.0314 30.9821 33.8575 29.5049C40.7383 25.9128 52.1018 34.1685 56.9218 43.3982C59.0656 47.5047 59.7252 51.3022 58.8906 54.7024H44.7662C44.7627 54.7024 44.7593 54.7024 44.7558 54.7024H38.3004L36.1861 52.5882C35.694 52.0963 34.8965 52.0963 34.4045 52.5882C33.9126 53.0803 33.9126 53.8779 34.4045 54.3698L34.7369 54.7023H31.2784C29.8752 51.513 28.9527 47.8507 28.6667 44.298C28.6109 43.6046 28.0041 43.0861 27.31 43.1434C26.6165 43.1992 26.0996 43.8065 26.1554 44.5001C26.3877 47.3872 26.9836 50.2599 27.9034 52.9711C24.3129 49.9115 19.623 48.2673 14.7943 48.5296C14.3443 48.554 13.9414 48.8172 13.7384 49.2195C11.8439 52.9708 11.3112 57.205 12.0969 61.2148C12.1043 61.3364 12.1283 61.4531 12.1677 61.5627C12.4146 62.7069 12.7707 63.8304 13.2329 64.9176C7.84078 65.7539 3.05248 68.9322 0.182385 73.6664C-0.0512613 74.0518 -0.0610035 74.5327 0.156517 74.9276C2.18642 78.6116 5.38608 81.4419 9.14507 83.0547C9.24535 83.1134 9.34999 83.158 9.45766 83.1865C11.5336 84.0329 13.7722 84.5111 16.0742 84.5587C16.2003 84.5613 16.3251 84.5625 16.4509 84.5625C17.347 84.5625 18.2348 84.4948 19.1093 84.3677C19.1917 84.3627 19.2735 84.3522 19.3529 84.3315C23.0556 83.7424 26.498 82.0422 29.2157 79.4874C29.2774 79.4967 29.3399 79.5031 29.4041 79.5031H35.0569C35.7527 79.5031 36.3167 78.9392 36.3167 78.2433C36.3167 77.5475 35.7527 76.9835 35.0569 76.9835H31.4398C31.7704 76.5354 32.0836 76.0717 32.3753 75.5905C32.3842 75.5758 32.3913 75.5603 32.3996 75.5454C32.4071 75.5318 32.4163 75.5194 32.4233 75.5053C35.3576 69.6922 35.0255 62.7201 31.5778 57.2217H37.2564L40.6863 60.6516C40.9322 60.8974 41.2547 61.0204 41.5771 61.0204C41.8994 61.0204 42.2219 60.8974 42.468 60.6516C42.96 60.1594 42.96 59.3619 42.468 58.8698L40.8199 57.2217H44.2393L48.9162 61.8987C49.1623 62.1447 49.4848 62.2676 49.8071 62.2676C50.1295 62.2676 50.452 62.1447 50.6981 61.8987C51.19 61.4066 51.19 60.609 50.6981 60.1171L47.8029 57.2219H59.8369L59.8411 57.2223L59.8453 57.2219H65.4238L62.6735 59.18C62.1065 59.5834 61.9743 60.37 62.3777 60.9367C62.6235 61.2821 63.0112 61.466 63.4051 61.466C63.6577 61.466 63.9128 61.3901 64.1346 61.2322L69.7676 57.2217H76.4568L76.459 57.2219L76.4619 57.2217H79.0854C79.6153 57.2217 80.1143 57.4282 80.4879 57.8006C80.8627 58.1763 81.0691 58.6753 81.0691 59.2055C81.0691 59.9639 81.0211 60.7111 80.9285 61.4449L71.6784 68.1146C71.1142 68.5216 70.9866 69.3089 71.3934 69.8734C71.6398 70.2149 72.0253 70.3965 72.4164 70.3965C72.6716 70.3965 72.9293 70.3191 73.1522 70.1584L80.0279 65.2009C78.6542 69.0234 76.0063 72.2432 72.5986 74.3457L58.5496 60.2968C58.0575 59.8049 57.26 59.8049 56.7679 60.2968C56.2759 60.789 56.2759 61.5864 56.7679 62.0784L70.2524 75.5629C68.4264 76.3429 66.4442 76.8252 64.3671 76.9498L58.8749 71.4579C58.3832 70.966 57.5855 70.9658 57.0935 71.458C56.6015 71.95 56.6015 72.7476 57.0936 73.2395L60.8375 76.9832H48.5045L46.4833 74.9621C45.9912 74.4702 45.1936 74.4702 44.7017 74.9621C44.2097 75.4541 44.2097 76.2517 44.7017 76.7437L44.9412 76.9832H40.3054C39.6095 76.9832 39.0456 77.5471 39.0456 78.243C39.0456 78.9389 39.6095 79.5028 40.3054 79.5028H47.4596L50.3009 82.3442C50.547 82.59 50.8695 82.713 51.1919 82.713C51.5142 82.713 51.8367 82.59 52.0828 82.3442C52.5748 81.852 52.5748 81.0545 52.0828 80.5624L51.023 79.5028H63.2887C66.4646 79.5028 69.4722 78.7689 72.1517 77.4631L73.21 78.5214C73.4561 78.7672 73.7786 78.8902 74.1009 78.8902C74.4232 78.8902 74.7457 78.7672 74.9918 78.5214C75.4838 78.0292 75.4838 77.2317 74.9918 76.7396L74.4214 76.1693C78.9634 73.179 82.239 68.4165 83.2551 62.8731L85.4771 61.271C86.0412 60.8641 86.1688 60.0769 85.762 59.5124ZM29.2839 58.3076C29.4252 58.5239 29.5589 58.7437 29.6889 58.9653L26.5 65.2928L22.8589 59.7213L25.4072 54.2024C26.9122 55.3174 28.2323 56.6986 29.2839 58.3076ZM25.1205 67.7874L18.1755 68.1371C17.7073 67.5971 17.2718 67.0236 16.8753 66.4169C16.047 65.1493 15.4149 63.7861 14.9795 62.372L21.5118 62.2654L25.1205 67.7874ZM23.2539 52.8554L21.2326 57.2326L17.2155 51.0856C19.3398 51.2743 21.3908 51.884 23.2539 52.8554ZM15.1056 52.4625L19.8826 59.7721L14.4201 59.8613C14.0745 57.3949 14.2992 54.8571 15.1056 52.4625ZM14.4544 67.3006C14.5557 67.4664 14.6594 67.6315 14.7661 67.7951C15.3259 68.6516 15.9518 69.4512 16.6332 70.1922C16.6829 70.2569 16.7388 70.3163 16.7998 70.3702C17.9313 71.5687 19.2113 72.6051 20.6008 73.4581L13.9727 73.3218L10.8478 68.0953C12.005 67.6956 13.2138 67.4267 14.4544 67.3006ZM8.51921 69.1103L11.0005 73.2605L3.65549 73.1095C5.00899 71.4564 6.665 70.1016 8.51921 69.1103ZM9.32765 80.3682C7.09618 79.2621 5.12741 77.6448 3.6056 75.6283L12.3355 75.808L9.32765 80.3682ZM18.2791 81.9364C17.569 82.0186 16.8498 82.0541 16.1254 82.0397C14.6114 82.0083 13.1291 81.7611 11.7163 81.3229L15.3134 75.869L21.9084 76.0047L18.2791 81.9364ZM21.7142 81.1495L24.8253 76.0647L28.6495 76.1434C28.7281 76.1506 28.807 76.1558 28.8859 76.162C26.9901 78.4634 24.4968 80.1824 21.7142 81.1495ZM28.7967 73.6265C25.8737 73.3401 23.0948 72.2563 20.761 70.5297L26.7163 70.2296L28.9381 73.6294L28.7967 73.6265ZM31.0544 72.2621L28.0929 67.7305L31.0323 61.8977C32.17 65.2368 32.1888 68.8915 31.0544 72.2621Z" fill="#253D4E"/>
<path d="M73.3985 61.6721C72.9915 61.1077 72.2041 60.9804 71.64 61.3872L67.2007 64.5883C66.6364 64.9951 66.5089 65.7823 66.9158 66.3468C67.162 66.6883 67.5476 66.8699 67.9385 66.8699C68.194 66.8699 68.4516 66.7925 68.6744 66.6317L73.1138 63.4308C73.6779 63.0239 73.8056 62.2366 73.3985 61.6721Z" fill="#253D4E"/>
</g>
<path d="M129.224 33.272C129.309 34.68 129.288 36.1307 129.16 37.624C129.075 39.1173 128.925 40.568 128.712 41.976C128.285 44.408 127.496 46.776 126.344 49.08C125.192 51.384 123.507 53.3467 121.288 54.968C118.984 56.6747 116.36 57.848 113.416 58.488C110.472 59.0853 107.549 59.448 104.648 59.576C103.667 59.6613 102.664 59.6827 101.64 59.64C100.659 59.64 99.6987 59.5333 98.76 59.32C97.992 59.192 97.416 58.9573 97.032 58.616C96.8187 58.488 96.648 58.3173 96.52 58.104C96.392 57.8907 96.2853 57.6773 96.2 57.464C96.072 57.2507 95.9653 57.0373 95.88 56.824C95.8373 56.568 95.7733 56.312 95.688 56.056C95.6453 55.8427 95.6027 55.6507 95.56 55.48C95.56 55.2667 95.56 55.0747 95.56 54.904V18.36C95.56 18.0613 95.56 17.784 95.56 17.528C95.56 17.272 95.6027 17.016 95.688 16.76C95.7733 16.1627 95.9013 15.672 96.072 15.288C96.2427 14.776 96.4773 14.4133 96.776 14.2C97.032 13.9867 97.288 13.8373 97.544 13.752C97.8 13.624 98.0347 13.5173 98.248 13.432C98.504 13.3467 98.76 13.3467 99.016 13.432C99.3147 13.4747 99.6347 13.4107 99.976 13.24L110.664 13.496C113.48 13.5813 115.997 14.2427 118.216 15.48C120.435 16.6747 122.333 18.2107 123.912 20.088C125.491 21.9653 126.728 24.0773 127.624 26.424C128.52 28.728 129.053 31.0107 129.224 33.272ZM117.32 45.432C118.131 44.152 118.728 42.68 119.112 41.016C119.496 39.352 119.667 37.6667 119.624 35.96C119.581 34.2107 119.347 32.5253 118.92 30.904C118.493 29.24 117.896 27.768 117.128 26.488C116.531 25.5493 115.763 24.7813 114.824 24.184C113.885 23.5867 112.84 23.1387 111.688 22.84C110.536 22.4987 109.299 22.264 107.976 22.136C106.696 22.008 105.437 21.944 104.2 21.944C104.243 23.1813 104.264 24.376 104.264 25.528C104.264 26.68 104.264 27.896 104.264 29.176C104.221 30.712 104.2 32.2053 104.2 33.656C104.2 35.1067 104.2 36.5147 104.2 37.88V50.936C105.523 50.8933 106.781 50.8293 107.976 50.744C109.213 50.616 110.387 50.36 111.496 49.976C112.648 49.592 113.693 49.0587 114.632 48.376C115.613 47.6507 116.509 46.6693 117.32 45.432ZM156.642 50.232C157.154 50.104 157.666 50.0187 158.178 49.976C158.732 49.9333 159.223 49.9973 159.65 50.168C160.119 50.3387 160.503 50.6373 160.802 51.064C161.1 51.448 161.25 52.0027 161.25 52.728C161.25 53.24 161.122 53.7307 160.866 54.2C160.61 54.6693 160.29 55.096 159.906 55.48C159.522 55.864 159.095 56.2053 158.626 56.504C158.156 56.76 157.708 56.9733 157.282 57.144C156.044 57.6987 154.615 58.1253 152.994 58.424C151.415 58.7227 149.772 58.8293 148.066 58.744C145.762 58.6587 143.543 58.2107 141.41 57.4C139.319 56.5467 137.676 55.16 136.482 53.24C135.372 51.3627 134.711 49.272 134.498 46.968C134.284 44.664 134.391 42.488 134.818 40.44C135.287 37.9653 136.076 35.96 137.186 34.424C138.338 32.8453 139.703 31.5867 141.282 30.648C143.202 29.5387 145.356 28.9627 147.746 28.92C150.135 28.8773 152.418 29.3467 154.594 30.328C156.044 30.968 157.346 31.8427 158.498 32.952C159.65 34.0187 160.524 35.32 161.122 36.856C161.292 37.24 161.42 37.7093 161.506 38.264C161.634 38.8187 161.719 39.416 161.762 40.056C161.804 40.6533 161.804 41.2507 161.762 41.848C161.719 42.4453 161.612 42.9787 161.442 43.448C161.186 44.216 160.866 44.8133 160.482 45.24C160.098 45.6667 159.607 45.9867 159.01 46.2C158.412 46.4133 157.687 46.5627 156.834 46.648C156.023 46.6907 155.042 46.7333 153.89 46.776C152.866 46.8187 151.906 46.84 151.01 46.84C150.114 46.84 149.196 46.84 148.258 46.84C147.319 46.7973 146.338 46.776 145.314 46.776C144.332 46.7333 143.223 46.6907 141.986 46.648C141.858 47.5013 141.964 48.248 142.306 48.888C142.69 49.4853 143.202 49.9973 143.842 50.424C144.482 50.808 145.207 51.1067 146.018 51.32C146.828 51.5333 147.618 51.6613 148.385 51.704C149.836 51.7893 151.223 51.6827 152.546 51.384C153.868 51.0427 155.234 50.6587 156.642 50.232ZM153.89 37.816C153.079 36.8773 152.226 36.1947 151.33 35.768C150.647 35.4693 149.922 35.3413 149.154 35.384C148.428 35.384 147.724 35.4907 147.042 35.704C145.804 36.0027 144.759 36.6427 143.906 37.624C143.82 37.7093 143.671 37.9227 143.458 38.264C143.244 38.5627 143.031 38.8827 142.818 39.224C142.647 39.5653 142.519 39.8853 142.434 40.184C142.348 40.4827 142.391 40.632 142.562 40.632H155.106C155.063 40.0347 154.956 39.544 154.786 39.16C154.615 38.7333 154.316 38.2853 153.89 37.816ZM176.822 53.88C176.779 54.0933 176.737 54.3067 176.694 54.52C176.694 54.6907 176.694 54.8827 176.694 55.096L176.31 56.44C176.225 56.6107 176.161 56.7173 176.118 56.76L175.926 57.144C175.713 57.6133 175.329 57.9973 174.774 58.296C173.75 58.808 172.662 58.936 171.51 58.68C170.785 58.5947 170.209 58.3813 169.782 58.04C169.355 57.7413 169.057 57.3787 168.886 56.952C168.715 56.5253 168.587 56.0987 168.502 55.672C168.374 55.2453 168.31 54.8613 168.31 54.52V18.68C168.31 18.3813 168.31 18.1253 168.31 17.912C168.353 17.656 168.395 17.4213 168.438 17.208C168.481 16.9093 168.523 16.6533 168.566 16.44C168.651 16.2267 168.737 15.992 168.822 15.736C168.95 15.3093 169.185 14.968 169.526 14.712C170.038 14.328 170.529 14.1147 170.998 14.072C171.297 13.9867 171.574 13.944 171.83 13.944C172.086 13.9013 172.385 13.88 172.726 13.88C173.323 13.88 174.006 14.0507 174.774 14.392C175.371 14.7333 175.798 15.2027 176.054 15.8C176.481 16.6533 176.694 17.4427 176.694 18.168C176.737 18.5947 176.758 19.2347 176.758 20.088C176.801 20.9413 176.822 21.5813 176.822 22.008V22.264C176.907 23.6293 176.95 24.952 176.95 26.232C176.95 27.4693 176.929 28.8347 176.886 30.328C176.886 31.7787 176.865 33.1867 176.822 34.552C176.822 35.8747 176.822 37.1973 176.822 38.52V51.96C176.822 52.1307 176.822 52.3013 176.822 52.472C176.865 52.6 176.886 52.7493 176.886 52.92C176.886 53.3467 176.865 53.6667 176.822 53.88ZM201.355 30.2C202.592 30.712 203.723 31.4587 204.747 32.44C205.771 33.3787 206.646 34.4667 207.371 35.704C208.139 36.9413 208.715 38.2853 209.099 39.736C209.526 41.144 209.739 42.5733 209.739 44.024C209.782 46.2 209.27 48.248 208.203 50.168C207.179 52.088 205.494 53.56 203.147 54.584C201.355 55.3093 199.499 55.864 197.579 56.248C195.702 56.5893 193.739 56.824 191.691 56.952V68.664C191.691 68.92 191.648 69.1547 191.563 69.368C191.52 69.5813 191.499 69.7947 191.499 70.008C191.414 70.4347 191.307 70.8187 191.179 71.16C191.094 71.5013 190.966 71.864 190.795 72.248C190.624 72.504 190.454 72.7387 190.283 72.952C190.112 73.1653 189.92 73.3787 189.707 73.592C188.683 74.104 187.616 74.2107 186.507 73.912C185.824 73.8693 185.27 73.656 184.843 73.272C184.459 72.888 184.182 72.4827 184.011 72.056C183.84 71.6293 183.691 71.1387 183.563 70.584C183.52 70.3707 183.478 70.1573 183.435 69.944C183.435 69.7733 183.435 69.5813 183.435 69.368V33.72C183.435 33.464 183.435 33.208 183.435 32.952C183.478 32.6533 183.52 32.3547 183.563 32.056C183.606 31.544 183.734 31.032 183.947 30.52C184.331 29.4533 185.12 28.728 186.315 28.344C187.51 27.96 188.854 27.7893 190.347 27.832C191.371 27.8747 192.416 27.9813 193.483 28.152C194.592 28.3227 195.638 28.536 196.619 28.792C197.643 29.0053 198.56 29.24 199.371 29.496C200.182 29.752 200.843 29.9867 201.355 30.2ZM201.483 44.024C201.654 42.8293 201.504 41.8267 201.035 41.016C200.608 40.1627 199.99 39.48 199.179 38.968C198.368 38.4133 197.43 37.9867 196.363 37.688C195.339 37.3893 194.315 37.176 193.291 37.048C193.163 37.0053 192.95 36.984 192.651 36.984C192.395 36.984 192.096 36.984 191.755 36.984C191.755 38.3493 191.755 39.672 191.755 40.952C191.798 42.1893 191.798 43.5333 191.755 44.984V49.272C192.736 49.2293 193.76 49.1227 194.827 48.952C195.936 48.7813 196.96 48.504 197.899 48.12C198.838 47.736 199.627 47.224 200.267 46.584C200.95 45.944 201.355 45.0907 201.483 44.024ZM239.895 46.392C239.938 47.2453 239.959 48.1413 239.959 49.08C239.959 49.976 239.938 50.808 239.895 51.576C239.852 52.728 239.788 53.7947 239.703 54.776C239.618 55.7147 239.447 56.5253 239.191 57.208C238.935 57.848 238.53 58.3387 237.975 58.68C237.463 58.9787 236.738 59.064 235.799 58.936C234.818 58.808 234.114 58.3387 233.687 57.528C233.26 56.7173 232.962 55.8 232.791 54.776C232.663 53.7093 232.62 52.6427 232.663 51.576C232.706 50.5093 232.706 49.6773 232.663 49.08C232.62 48.1413 232.578 47.0747 232.535 45.88C232.535 44.6427 232.407 43.4907 232.151 42.424C231.938 41.3147 231.554 40.376 230.999 39.608C230.444 38.84 229.612 38.4347 228.503 38.392C227.095 38.3067 226.007 38.4133 225.239 38.712C224.514 39.0107 223.98 39.4587 223.639 40.056C223.298 40.6107 223.084 41.2933 222.999 42.104C222.956 42.9147 222.871 43.7893 222.743 44.728L222.679 47.224V51.896C222.679 52.664 222.658 53.4747 222.615 54.328C222.615 55.1387 222.487 55.8853 222.231 56.568C221.975 57.2507 221.57 57.8267 221.015 58.296C220.503 58.7653 219.735 59 218.711 59C217.431 59 216.471 58.5947 215.831 57.784C215.234 56.9307 214.935 55.8853 214.935 54.648V17.848C214.935 17.592 214.935 17.3573 214.935 17.144C214.978 16.888 215.02 16.632 215.063 16.376C215.148 16.12 215.212 15.8853 215.255 15.672C215.298 15.416 215.362 15.1813 215.447 14.968C215.575 14.5413 215.788 14.2213 216.087 14.008C216.3 13.7947 216.514 13.624 216.727 13.496C216.94 13.368 217.175 13.2827 217.431 13.24C217.644 13.1973 217.879 13.176 218.135 13.176C218.391 13.1333 218.647 13.112 218.903 13.112C219.543 13.112 220.162 13.304 220.759 13.688C221.015 13.8587 221.25 14.0507 221.463 14.264C221.676 14.4347 221.847 14.6907 221.975 15.032C222.316 15.8427 222.487 16.6107 222.487 17.336C222.53 17.5493 222.551 17.8693 222.551 18.296C222.594 18.68 222.615 19.0853 222.615 19.512C222.615 19.9387 222.615 20.3653 222.615 20.792C222.658 21.176 222.679 21.4747 222.679 21.688V22.008C222.722 23.3733 222.743 24.76 222.743 26.168C222.743 27.576 222.743 29.0053 222.743 30.456V31.544C224.535 30.9467 226.412 30.6693 228.375 30.712C230.338 30.712 232.087 31.096 233.623 31.864C235.202 32.6747 236.396 33.592 237.207 34.616C238.06 35.64 238.679 36.7707 239.063 38.008C239.447 39.2453 239.66 40.568 239.703 41.976C239.788 43.384 239.852 44.856 239.895 46.392ZM273.186 30.456C273.57 31.0533 273.741 31.6933 273.698 32.376C273.698 33.3573 273.527 34.2107 273.186 34.936C273.101 35.1493 272.973 35.4267 272.802 35.768C272.674 36.1093 272.525 36.472 272.354 36.856C272.226 37.24 272.077 37.6027 271.906 37.944C271.735 38.2853 271.607 38.5413 271.522 38.712L271.394 39.032C270.797 40.3547 270.221 41.6347 269.666 42.872C269.111 44.1093 268.493 45.432 267.81 46.84C267.127 48.2053 266.466 49.5493 265.826 50.872C265.229 52.152 264.631 53.4107 264.034 54.648C263.863 54.9893 263.714 55.3307 263.586 55.672C263.458 55.9707 263.287 56.2907 263.074 56.632L260.002 63.224C259.447 64.3333 258.914 65.4213 258.402 66.488C257.933 67.5547 257.399 68.6213 256.802 69.688C256.674 69.9013 256.546 70.0933 256.418 70.264C256.333 70.4773 256.247 70.6907 256.162 70.904C255.863 71.416 255.415 71.9067 254.818 72.376C254.263 72.888 253.666 73.1653 253.026 73.208C251.874 73.2933 250.871 72.952 250.018 72.184C249.506 71.8853 249.101 71.4587 248.802 70.904C248.631 70.52 248.546 70.0293 248.546 69.432C248.589 69.176 248.61 68.92 248.61 68.664C248.653 68.4507 248.695 68.2373 248.738 68.024C248.823 67.8107 248.887 67.5973 248.93 67.384C248.973 67.1707 249.037 67 249.122 66.872C249.25 66.5307 249.357 66.36 249.442 66.36L254.114 56.248C253.901 55.7787 253.687 55.3093 253.474 54.84C253.261 54.328 253.069 53.88 252.898 53.496C252.343 52.1733 251.746 50.7867 251.106 49.336C250.509 47.8427 249.89 46.3707 249.25 44.92C248.61 43.4267 247.949 41.976 247.266 40.568C246.583 39.16 245.901 37.816 245.218 36.536C244.962 36.1093 244.727 35.6613 244.514 35.192C244.301 34.68 244.13 34.1893 244.002 33.72C243.874 33.208 243.831 32.696 243.874 32.184C243.917 31.672 244.109 31.16 244.45 30.648C244.791 30.008 245.239 29.56 245.794 29.304C246.349 29.0053 246.925 28.8773 247.522 28.92C248.162 28.92 248.759 29.048 249.314 29.304C249.869 29.56 250.317 29.9013 250.658 30.328C251.383 31.096 251.959 31.9493 252.386 32.888C252.813 33.8267 253.218 34.7867 253.602 35.768C254.413 37.4747 255.245 39.2667 256.098 41.144C256.951 43.0213 257.805 44.856 258.658 46.648L261.986 39.608C262.327 38.9253 262.626 38.264 262.882 37.624C263.181 36.984 263.479 36.3653 263.778 35.768C264.119 35.0427 264.439 34.296 264.738 33.528C265.079 32.76 265.463 32.056 265.89 31.416C265.975 31.2453 266.061 31.096 266.146 30.968C266.231 30.84 266.317 30.6907 266.402 30.52C266.786 30.008 267.127 29.6027 267.426 29.304C267.639 29.1333 267.81 29.0053 267.938 28.92C268.109 28.792 268.301 28.7067 268.514 28.664C268.813 28.5787 269.09 28.536 269.346 28.536C269.645 28.4933 269.922 28.4933 270.178 28.536C270.605 28.664 271.117 28.856 271.714 29.112C272.354 29.368 272.845 29.816 273.186 30.456Z" fill="#3BB77E"/>
</svg>
