<svg id="Layer_1" height="512" viewBox="0 0 512 512" width="512" xmlns="http://www.w3.org/2000/svg" data-name="Layer 1"><path d="m489.864 101.1a130.755 130.755 0 0 0 -60.164-50.89c-28.112-11.8-59.687-13.924-91.309-6.127-28.978 7.146-57.204 22.645-82.391 45.129-25.189-22.486-53.418-37.986-82.4-45.131-31.623-7.8-63.2-5.674-91.312 6.134a130.755 130.755 0 0 0 -60.161 50.9c-15.02 23.744-22.661 52.619-22.097 83.5 2.504 137.285 207.006 262.122 247.976 285.755a16 16 0 0 0 15.989 0c40.974-23.636 245.494-148.495 247.976-285.779.558-30.879-7.086-59.751-22.107-83.491zm-9.887 82.916c-.8 44.388-30.39 96.139-85.563 149.655-51.095 49.558-109.214 86.912-138.414 104.293-29.2-17.378-87.31-54.727-138.4-104.287-55.176-53.512-84.766-105.259-85.576-149.646-.884-48.467 22.539-87.462 62.656-104.313a106.644 106.644 0 0 1 41.511-8.238c36.795 0 75.717 17.812 108.4 51.046a16 16 0 0 0 22.815 0c45.406-46.17 102.85-62.573 149.9-42.811 40.121 16.845 63.547 55.834 62.671 104.298z"/></svg>